<svg xmlns="http://www.w3.org/2000/svg" width="1200" height="800" viewBox="0 0 1200 800"><rect width="1200" height="800" fill="#0b0e13"/><g fill="none" stroke="#26303d" stroke-width="2" opacity=".9"><path d="M0 100L100 0M0 300L300 0M0 500L500 0M0 700L700 0M200 800L1000 0M500 800L1200 100M800 800L1200 400M1100 800L1200 700"/><path d="M0 0l1200 800M0 160l960 640M0 480l480 320M240 0l960 640M720 0l480 320"/></g><g fill="#1769ff" opacity=".8"><path d="M890 110h120l-30 30H860z"/><path d="M130 620h190l-40 40H90z"/><path d="M1000 580h90l-24 24h-90z"/></g></svg>
